<?xml version="1.0" encoding="UTF-8"?><svg id="Layer_2" xmlns="http://www.w3.org/2000/svg" viewBox="0 0 270.62 65.72"><defs><style>.cls-1{fill:#6aa342;}.cls-2{fill:#084975;}.cls-3{fill:#a2b1c9;}</style></defs><g id="Layer_1-2"><g><path class="cls-1" d="M97.82,40.61c-.44-.87-1.07-1.61-1.88-2.21-.82-.61-1.8-1.07-2.95-1.4-1.15-.32-2.43-.49-3.83-.49h-2.33l-4.66,.39-3.11-.39h-2.72l-.39,.39v.78l.39,.39h1.55l1.55,.39,.39,.78v21.75l-.39,.78-1.55,.39h-1.55l-.39,.39v.78l.39,.39h2.72l3.11-.39,3.11,.39h3.11l.39-.39v-.78l-.39-.39h-1.94l-1.55-.39-.39-.78v-8.93l.39-.39h3.11c1.55,0,2.97-.19,4.25-.58,1.28-.39,2.39-.94,3.32-1.67,.93-.72,1.65-1.59,2.16-2.58,.51-1,.76-2.1,.76-3.32,0-1.06-.22-2.03-.66-2.89h0Zm-5.85,7.85c-1.1,1.1-2.62,1.65-4.56,1.65h-2.53l-.39-.39v-10.49l.39-.78,1.17-.39h1.94c1.76,0,3.14,.53,4.14,1.59,1,1.06,1.5,2.47,1.5,4.23,0,1.94-.55,3.46-1.65,4.56h0Zm27.87,15.25v-6.8l-.39-.39h-.78l-.39,.39-.58,2.72-1.75,1.75-3.11,.78h-2.72l-1.16-.39-.39-.78v-14.37l.39-.78,1.16-.39h1.75l.39-.39v-.78l-.39-.39h-2.33l-3.11,.39-3.11-.39h-2.14l-.39,.39v.78l.39,.39h1.55l1.17,.39,.39,.78v14.37l-.39,.78-1.17,.39h-1.55l-.39,.39v.78l.39,.39h2.14l3.11-.39,3.88,.39h8.35l.78,.39,.39-.39h0Zm26.99-.39v-.78l-.39-.39h-.97l-1.17-.39-.78-.78-7.57-17.09-.39-.39-1.55,.39h-1.44l-.39,.39-7.5,16.7-.78,.78-1.17,.39h-.97l-.39,.39v.78l.39,.39h1.16l2.33-.39,2.33,.39h1.94l.39-.39v-.78l-.39-.39h-1.09l-1.17-.39-.39-.78,1.48-3.5,.31-.39h8.23l.31,.39,1.44,3.5-.39,.78-1.17,.39h-1.16l-.39,.39v.78l.39,.39h2.52l3.11-.39,3.11,.39h1.75l.39-.39h0Zm-10.49-7.96l-.19,.19h-6.72l-.19-.19,3.22-7.57,.39-1.17,.39,1.17,3.11,7.57h0Zm36.51-10.29v-.78l-.39-.39h-1.55l-2.33,.39-2.33-.39h-1.94l-.39,.39v.78l.39,.39h1.75l1.17,.39,.39,.78v9.4l.08,1.4-.66-1.01-10.49-12.12-.78-.39h-.97l-2.33,.19-2.33-.19h-1.55l-.39,.39v.78l.39,.39h1.55l1.16,.39,.39,.78v14.37l-.39,.78-1.16,.39h-1.55l-.39,.39v.78l.39,.39h1.75l2.33-.39,2.33,.39h1.94l.39-.39v-.78l-.39-.39h-1.75l-1.17-.39-.39-.78v-12.51l-.08-1.4,.66,1.01,13.4,15.61,.78,.39h.78l.39-.39v-17.09l.39-.78,1.16-.39h1.36l.39-.39h0Zm26.02,0v-.78l-.39-.39h-1.55l-2.33,.39-2.33-.39h-1.94l-.39,.39v.78l.39,.39h1.75l1.16,.39,.39,.78v9.4l.08,1.4-.66-1.01-10.49-12.12-.78-.39h-.97l-2.33,.19-2.33-.19h-1.55l-.39,.39v.78l.39,.39h1.55l1.16,.39,.39,.78v14.37l-.39,.78-1.16,.39h-1.55l-.39,.39v.78l.39,.39h1.75l2.33-.39,2.33,.39h1.94l.39-.39v-.78l-.39-.39h-1.75l-1.16-.39-.39-.78v-12.51l-.08-1.4,.66,1.01,13.4,15.61,.78,.39h.78l.39-.39v-17.09l.39-.78,1.16-.39h1.36l.39-.39h0Zm13.01,18.26v-.78l-.39-.39h-1.75l-1.17-.39-.39-.78v-14.37l.39-.78,1.17-.39h1.75l.39-.39v-.78l-.39-.39h-2.72l-2.72,.39-3.11-.39h-2.33l-.39,.39v.78l.39,.39h1.75l1.17,.39,.39,.78v14.37l-.39,.78-1.17,.39h-1.75l-.39,.39v.78l.39,.39h2.33l3.11-.39,3.11,.39h2.33l.39-.39h0Zm25.83-18.26v-.78l-.39-.39h-1.55l-2.33,.39-2.33-.39h-1.94l-.39,.39v.78l.39,.39h1.75l1.17,.39,.39,.78v9.4l.08,1.4-.66-1.01-10.49-12.12-.78-.39h-.97l-2.33,.19-2.33-.19h-1.55l-.39,.39v.78l.39,.39h1.55l1.17,.39,.39,.78v14.37l-.39,.78-1.17,.39h-1.55l-.39,.39v.78l.39,.39h1.75l2.33-.39,2.33,.39h1.94l.39-.39v-.78l-.39-.39h-1.75l-1.17-.39-.39-.78v-12.51l-.08-1.4,.66,1.01,13.4,15.61,.78,.39h.78l.39-.39v-17.09l.39-.78,1.17-.39h1.36l.39-.39h0Zm24.08,10.1v-.78l-.39-.39h-1.36l-3.11,.39-3.11-.39h-1.94l-.39,.39v.78l.39,.39h1.36l1.16,.39,.39,.78v3.88c-.6,.6-1.28,1.1-2.04,1.52-.76,.41-1.64,.62-2.62,.62-2.05,0-3.63-.75-4.74-2.25-1.11-1.5-1.67-3.66-1.67-6.49s.53-5.18,1.57-6.76c1.05-1.58,2.6-2.37,4.64-2.37,1.55,0,2.89,.47,4.02,1.4,1.13,.93,1.99,2.28,2.58,4.04l.39,.39h.78l.39-.39v-6.02l-.39-.39h-.78l-1.36,1.36c-.6-.6-1.38-1.07-2.35-1.42-.97-.35-2-.52-3.09-.52-1.71,0-3.26,.27-4.66,.8-1.4,.53-2.6,1.26-3.61,2.18-1.01,.92-1.79,2.01-2.35,3.26-.56,1.26-.83,2.61-.83,4.06v1.17c0,1.35,.28,2.6,.83,3.77,.56,1.16,1.32,2.17,2.29,3.03,.97,.85,2.12,1.52,3.44,2,1.32,.48,2.76,.72,4.31,.72,1.37,0,2.63-.23,3.77-.7,1.14-.47,2.14-1.13,2.99-1.98l1.4,2.1h.78l.39-.39v-6.6l.39-.78,1.16-.39h.97l.39-.39h0Z"/><path class="cls-2" d="M110.6,27.65v-.78l-.39-.39h-1.55l-1.55-.39-.39-.78V3.57l.39-.78,1.55-.39h1.55l.39-.39v-.78l-.39-.39h-2.33l-2.72,.19-2.72-.19h-.7l-.47,.47-7.38,17.98-.39,1.17-.39-1.17L85.74,1.31l-.47-.47h-.7l-3.11,.19-3.11-.19h-2.14l-.39,.39v.78l.39,.39h1.75l1.55,.39,.39,.78V24.73l-.58,1.17-1.55,.58h-1.55l-.39,.39v.78l.39,.39h1.75l2.72-.39,2.72,.39h1.94l.39-.39v-.78l-.39-.39h-1.36l-1.55-.58-.58-1.17V5.12l-.08-1.55,9.4,22.92,.2,.74,.39,.39h.58l.39-.39,.19-.74L102.37,3.57l-.12,1.55V25.32l-.39,.78-1.55,.39h-1.36l-.39,.39v.78l.39,.39h2.52l3.11-.39,3.11,.39h2.52l.39-.39h0Zm21.36,.39v-6.6l-.39-.39h-.78l-.39,.39-.58,2.72-1.55,1.55-3.11,.78h-3.3l-1.17-.39-.39-.78v-6.68l.19-.39h2.14l1.94,.97,.58,1.75v.66l.39,.39h.78l.39-.39v-2.14l-.19-1.94,.19-1.94v-2.14l-.39-.39h-.78l-.39,.39v.66l-.58,1.75-1.94,.97h-2.14l-.19-.39v-5.52l.39-.78,1.17-.39h3.5l2.33,.58,1.55,1.55,.58,2.33,.39,.39h.78l.39-.39v-6.02l-.39-.39-.78,.39h-8.16l-3.88,.39-3.11-.39h-2.14l-.39,.39v.78l.39,.39h1.55l1.16,.39,.39,.78v14.37l-.39,.78-1.16,.39h-1.55l-.39,.39v.78l.39,.39h2.14l3.11-.39,3.88,.39h8.74l.78,.39,.39-.39h0Zm31.46-.39v-.78l-.39-.39h-1.55l-1.16-.39-.39-.78V10.94l.39-.78,1.16-.39h1.55l.39-.39v-.78l-.39-.39h-.97l-2.33,.19-2.33-.19h-.97l-.78,.39-6.41,12.82-.19,.78-.19-.78-6.41-12.82-.78-.39h-1.17l-2.33,.19-2.33-.19h-1.16l-.39,.39v.78l.39,.39h1.55l1.17,.39,.39,.78v14.37l-.39,.78-1.17,.39h-1.55l-.39,.39v.78l.39,.39h1.75l2.33-.39,2.33,.39h1.36l.39-.39v-.78l-.39-.39h-1.17l-1.17-.39-.39-.78V12.89l-.08-.78,.27,.78,6.8,13.59,.39,.97,.39,.39h.39l.39-.39,.39-.97,6.99-13.98,.27-.78-.08,.78v12.82l-.39,.78-1.17,.39h-1.17l-.39,.39v.78l.39,.39h1.75l3.11-.39,3.11,.39h1.94l.39-.39h0Zm23.69-9.32v-1.17c0-1.37-.28-2.63-.84-3.79-.56-1.15-1.33-2.16-2.31-3.01-.99-.85-2.15-1.52-3.5-2-1.35-.48-2.82-.72-4.43-.72-1.71,0-3.26,.27-4.66,.8-1.4,.53-2.6,1.26-3.61,2.18-1.01,.92-1.79,2.01-2.35,3.26-.56,1.26-.83,2.61-.83,4.06v1.17c0,1.35,.28,2.6,.83,3.77s1.33,2.18,2.31,3.03c.98,.85,2.15,1.52,3.5,2,1.35,.48,2.82,.72,4.43,.72,1.71,0,3.26-.27,4.66-.8,1.4-.53,2.6-1.26,3.61-2.18,1.01-.92,1.79-2.01,2.35-3.26,.56-1.26,.84-2.61,.84-4.06h0Zm-5.05,0c0,2.72-.48,4.79-1.44,6.21-.96,1.42-2.16,2.23-3.61,2.41l-.97,.12h-.39l-.97-.12c-1.45-.18-2.65-.98-3.61-2.41-.96-1.42-1.44-3.5-1.44-6.21v-.39c0-2.72,.48-4.79,1.44-6.21,.96-1.42,2.16-2.23,3.61-2.41l.97-.12h.39l.97,.12c1.45,.18,2.65,.98,3.61,2.41,.96,1.42,1.44,3.5,1.44,6.21v.39h0Zm29.32,9.32v-.78l-.39-.39h-1.16l-1.17-.39-.58-.58-1.75-5.24-.97-.97-2.33-1.17c3.37-.8,5.05-2.49,5.05-5.05,0-.67-.21-1.31-.62-1.9-.41-.6-.97-1.11-1.67-1.55-.7-.44-1.52-.78-2.47-1.03-.95-.25-1.95-.37-3.01-.37h-2.91l-3.88,.39-3.11-.39h-2.14l-.39,.39v.78l.39,.39h1.55l1.17,.39,.39,.78v14.37l-.39,.78-1.17,.39h-1.55l-.39,.39v.78l.39,.39h2.14l3.11-.39,3.11,.39h2.14l.39-.39v-.78l-.39-.39h-1.55l-1.16-.39-.39-.78v-6.02l.19-.39h2.52c1.76,0,3.01,.54,3.75,1.63,.74,1.09,1.11,2.81,1.11,5.17,.39,.44,.76,.81,1.11,1.11,.35,.3,.74,.54,1.16,.72,.43,.18,.92,.31,1.48,.39,.56,.08,1.25,.12,2.08,.12h1.94l.39-.39h0Zm-8.84-11.3c-.84,.75-2.23,1.13-4.18,1.13h-2.52l-.19-.39v-6.14l.39-.78,1.16-.39h1.55c1.55,0,2.78,.32,3.69,.97,.91,.65,1.36,1.55,1.36,2.72s-.42,2.12-1.26,2.87h0Zm21.46,11.3v-.78l-.39-.39h-1.75l-1.17-.39-.39-.78V10.94l.39-.78,1.17-.39h1.75l.39-.39v-.78l-.39-.39h-2.72l-2.72,.39-3.11-.39h-2.33l-.39,.39v.78l.39,.39h1.75l1.16,.39,.39,.78v14.37l-.39,.78-1.16,.39h-1.75l-.39,.39v.78l.39,.39h2.33l3.11-.39,3.11,.39h2.33l.39-.39h0Zm26.61,0v-.78l-.39-.39h-.97l-1.16-.39-.78-.78-7.57-17.09-.39-.39-1.55,.39h-1.44l-.39,.39-7.5,16.7-.78,.78-1.17,.39h-.97l-.39,.39v.78l.39,.39h1.17l2.33-.39,2.33,.39h1.94l.39-.39v-.78l-.39-.39h-1.09l-1.16-.39-.39-.78,1.48-3.5,.31-.39h8.23l.31,.39,1.44,3.5-.39,.78-1.16,.39h-1.17l-.39,.39v.78l.39,.39h2.52l3.11-.39,3.11,.39h1.75l.39-.39h0Zm-10.49-7.96l-.19,.19h-6.72l-.19-.19,3.22-7.57,.39-1.17,.39,1.17,3.11,7.57h0Zm30.49,8.35v-6.8l-.39-.39h-.78l-.39,.39-.58,2.72-1.75,1.75-3.11,.78h-2.72l-1.16-.39-.39-.78V10.94l.39-.78,1.16-.39h1.75l.39-.39v-.78l-.39-.39h-2.33l-3.11,.39-3.11-.39h-2.14l-.39,.39v.78l.39,.39h1.55l1.17,.39,.39,.78v14.37l-.39,.78-1.17,.39h-1.55l-.39,.39v.78l.39,.39h2.14l3.11-.39,3.88,.39h8.35l.78,.39,.39-.39h0Z"/><path class="cls-3" d="M5.16,32.59c.14-16.15,13.15-29.19,29.16-29.19,10.09,0,18.99,5.18,24.23,13.05,1.6,.35,3.19,.83,4.72,1.41C57.88,7.26,46.94,0,34.32,0,16.36,0,1.8,14.71,1.8,32.86c0,.77,.03,1.54,.08,2.3,1.05-.91,2.15-1.77,3.28-2.58h0Z"/><path class="cls-3" d="M34.32,65.72c17.96,0,32.53-14.71,32.53-32.86,0-3.98-.7-7.8-1.98-11.33-1.12,.28-2.13,.76-3.04,1.49,1.08,3.08,1.66,6.38,1.66,9.83,0,16.27-13.06,29.46-29.16,29.46-13.9,0-25.52-9.82-28.45-22.96-1.08-.34-2.25-.5-3.52-.42,2.82,15.24,16.06,26.78,31.97,26.78h0Z"/><path class="cls-2" d="M39.75,38.73c6.71,1.53,10.4,.28,12.95-2.21,4.58-4.46,4.16-15.39,13.57-16.25-8.56-4.23-17.42-4.75-23.24-.62-5.24,3.73-8.13,11.59-4.22,17.72,1.44-7.91,7.69-17.99,19.71-17.45-15.89,.81-19.97,17.72-18.77,18.8h0Z"/><path class="cls-1" d="M38,49.26c-7.21,4.44-11.99,4.44-15.92,2.55-7.05-3.38-10.81-16.25-22.08-13.52,8.31-8.31,18.42-12.42,26.79-9.91,7.01,2.1,13.04,9.16,12.11,17.12-.07,.6,3.36,6.52,4.22,9.62-.3-.55-5.18-8.9-5.53-9.45-5.19-8.1-15.81-15.9-28.71-10.85,18.79-5.35,29.21,11.67,29.12,14.44h0Z"/></g></g></svg>